<?xml version="1.0"?>
<svg width="350" height="350" xmlns="http://www.w3.org/2000/svg" xmlns:svg="http://www.w3.org/2000/svg" xmlns:xlink="http://www.w3.org/1999/xlink">
 <defs>
  <g fill="#000000" id="L1_7" transform="matrix(0.47666012040874417 -0.47666012040874417 0.47666012040874417 0.47666012040874417 227.96869341651828 293.78519954759963)">
   <path d="m9,60l36,0c2.76005,-0.00331 4.99669,-2.23995 5,-5l0,-46c-0.00427,-2.40789 -1.72415,-4.47073 -4.092,-4.908c-0.43727,-2.36785 -2.50011,-4.08773 -4.908,-4.092l-27,0c-0.26519,0.00006 -0.51951,0.10545 -0.707,0.293l-13,13c-0.18755,0.18749 -0.29294,0.44181 -0.293,0.707l0,37c0.00427,2.40789 1.72415,4.47073 4.092,4.908c0.43727,2.36785 2.50011,4.08773 4.908,4.092zm39,-51l0,46c0,1.65685 -1.34315,3 -3,3l-36,0c-1.26679,-0.00525 -2.39375,-0.80565 -2.816,-2l34.816,0c2.76005,-0.00331 4.99669,-2.23995 5,-5l0,-44.816c1.19435,0.42225 1.99475,1.54921 2,2.816zm-35,-5.586l0,6.586c0,1.65685 -1.34315,3 -3,3l-6.586,0l9.586,-9.586zm-11,47.586l0,-36l8,0c2.76005,-0.00331 4.99669,-2.23995 5,-5l0,-8l26,0c1.65685,0 3,1.34315 3,3l0,46c0,1.65685 -1.34315,3 -3,3l-36,0c-1.65685,0 -3,-1.34315 -3,-3z" id="L1_0"/>
   <path d="m29,6l6,0c0.55228,0 1,-0.44772 1,-1s-0.44772,-1 -1,-1l-6,0c-0.55228,0 -1,0.44772 -1,1s0.44772,1 1,1z" id="L1_1"/>
   <path d="m39,6l2,0c0.55228,0 1,-0.44772 1,-1s-0.44772,-1 -1,-1l-2,0c-0.55228,0 -1,0.44772 -1,1s0.44772,1 1,1z" id="L1_2"/>
   <path d="m6,51l1,0c0.55228,0 1,-0.44772 1,-1s-0.44772,-1 -1,-1l-1,0c-0.55228,0 -1,0.44772 -1,1s0.44772,1 1,1z" id="L1_3"/>
   <path d="m40,49l-9,0c-0.55228,0 -1,0.44772 -1,1s0.44772,1 1,1l9,0c0.55228,0 1,-0.44772 1,-1s-0.44772,-1 -1,-1z" id="L1_4"/>
   <path d="m26,49l-15,0c-0.55228,0 -1,0.44772 -1,1s0.44772,1 1,1l15,0c0.55228,0 1,-0.44772 1,-1s-0.44772,-1 -1,-1z" id="L1_5"/>
   <path d="m11,37l4,0l0,4c0.00331,2.76005 2.23995,4.99669 5,5l6,0c2.76005,-0.00331 4.99669,-2.23995 5,-5l0,-4l4,0c2.76005,-0.00331 4.99669,-2.23995 5,-5l0,-6c-0.00331,-2.76005 -2.23995,-4.99669 -5,-5l-4,0l0,-4c-0.00331,-2.76005 -2.23995,-4.99669 -5,-5l-6,0c-2.76005,0.00331 -4.99669,2.23995 -5,5l0,4l-4,0c-2.76005,0.00331 -4.99669,2.23995 -5,5l0,6c0.00331,2.76005 2.23995,4.99669 5,5zm24,-14c1.65685,0 3,1.34315 3,3l0,6c0,1.65685 -1.34315,3 -3,3l-12,0c-0.55228,0 -1,0.44772 -1,1s0.44772,1 1,1l6,0l0,4c0,1.65685 -1.34315,3 -3,3l-6,0c-1.65685,0 -3,-1.34315 -3,-3l0,-8c0,-1.65685 1.34315,-3 3,-3l6,0c2.76005,-0.00331 4.99669,-2.23995 5,-5l0,-2l4,0zm-27,3c0,-1.65685 1.34315,-3 3,-3l12,0c0.55228,0 1,-0.44772 1,-1s-0.44772,-1 -1,-1l-6,0l0,-4c0,-1.65685 1.34315,-3 3,-3l6,0c1.65685,0 3,1.34315 3,3l0,8c0,1.65685 -1.34315,3 -3,3l-6,0c-2.76005,0.00331 -4.99669,2.23995 -5,5l0,2l-4,0c-1.65685,0 -3,-1.34315 -3,-3l0,-6z" id="Shape"/>
   <circle cx="21" cy="18" id="L1_6" r="1"/>
   <circle cx="25" cy="40" id="Oval" r="1"/>
  </g>
  <g id="L1_8" transform="matrix(0.07404525353281088 -0.07404525353281088 0.07404525353281088 0.07404525353281088 -0.5533463170192867 55.98922908655878)">
   <path d="m126.923,193.689c4.77,-5.465 7.156,-13.416 7.156,-23.854l0,-83.665l-18.959,0l0,83.789c0,5.504 -0.897,9.551 -2.691,12.141c-1.795,2.588 -4.771,3.883 -8.93,3.883c-2.691,0 -5.666,-0.408 -8.929,-1.223l0,15.779c3.18,0.896 6.911,1.346 11.192,1.346c9.337,0 16.391,-2.733 21.161,-8.196z" id="svg_1"/>
   <path d="m283.149,52.723l-50.524,-50.526c-1.407,-1.407 -3.314,-2.197 -5.304,-2.197l-186.979,0c-4.142,0 -7.5,3.358 -7.5,7.5l0,303.188c0,4.142 3.358,7.5 7.5,7.5l237.504,0c4.143,0 7.5,-3.358 7.5,-7.5l0,-252.663c0,-1.989 -0.79,-3.896 -2.197,-5.302zm-48.328,-27.117l24.918,24.919l-24.918,0l0,-24.919zm-186.979,-10.606l171.98,0l0,10.263l-171.98,0l0,-10.263zm222.504,288.188l-222.504,0l0,-262.925l171.98,0l0,17.763c0,4.143 3.357,7.5 7.5,7.5l43.024,0l0,237.662z" id="svg_2"/>
   <path d="m187.532,123.967c-6.32,-3.017 -10.326,-5.107 -12.018,-6.27c-1.692,-1.162 -2.926,-2.363 -3.699,-3.607c-0.775,-1.244 -1.162,-2.701 -1.162,-4.373c0,-2.691 0.957,-4.872 2.874,-6.545c1.916,-1.671 4.668,-2.508 8.257,-2.508c3.017,0 6.085,0.389 9.204,1.162c3.119,0.775 7.063,2.141 11.835,4.098l6.115,-14.738c-4.607,-1.998 -9.021,-3.548 -13.24,-4.648c-4.221,-1.102 -8.654,-1.651 -13.303,-1.651c-9.46,0 -16.871,2.263 -22.232,6.788c-5.361,4.526 -8.042,10.744 -8.042,18.654c0,4.199 0.815,7.869 2.446,11.009s3.812,5.892 6.545,8.257c2.73,2.365 6.828,4.831 12.293,7.4c5.83,2.773 9.693,4.791 11.59,6.055c1.896,1.264 3.332,2.578 4.311,3.944c0.98,1.366 1.469,2.927 1.469,4.679c0,3.141 -1.111,5.504 -3.334,7.095c-2.223,1.59 -5.412,2.386 -9.57,2.386c-3.467,0 -7.289,-0.551 -11.469,-1.652c-4.18,-1.101 -9.286,-2.996 -15.32,-5.688l0,17.614c7.34,3.589 15.779,5.382 25.32,5.382c10.356,0 18.439,-2.324 24.25,-6.973c5.811,-4.648 8.715,-11.008 8.715,-19.082c0,-5.83 -1.549,-10.753 -4.647,-14.77c-3.1,-4.016 -8.829,-8.022 -17.188,-12.018z" id="svg_3"/>
   <path d="m132.57,277.794l0,0c-0.001,3.129 -0.461,5.338 -1.379,6.63c-0.919,1.29 -2.451,1.936 -4.594,1.936c-0.919,0 -1.772,-0.082 -2.56,-0.246c-0.788,-0.164 -1.531,-0.313 -2.232,-0.443l0,10.075c2.123,0.46 4.365,0.689 6.728,0.689c5.688,0 9.955,-1.669 12.799,-5.005s4.266,-8.254 4.266,-14.752l0,-43.286l-13.028,0l0,44.402z" id="svg_4"/>
   <path d="m176.317,252.755c-4.311,-1.969 -6.952,-3.325 -7.926,-4.069c-0.974,-0.743 -1.46,-1.586 -1.46,-2.526c-0.001,-0.877 0.381,-1.61 1.147,-2.201s1.99,-0.887 3.676,-0.887c3.26,0 7.132,1.029 11.617,3.086l3.971,-10.01c-5.163,-2.297 -10.229,-3.445 -15.194,-3.445c-5.623,0 -10.042,1.236 -13.259,3.708c-3.216,2.473 -4.823,5.919 -4.823,10.337c0,2.363 0.377,4.409 1.132,6.137c0.755,1.729 1.914,3.261 3.479,4.596c1.564,1.334 3.91,2.713 7.039,4.135c3.457,1.553 5.584,2.582 6.384,3.084c0.798,0.504 1.378,1.002 1.739,1.494c0.36,0.492 0.541,1.066 0.541,1.723c0,1.05 -0.448,1.908 -1.346,2.576c-0.897,0.668 -2.309,1.001 -4.233,1.001c-2.231,0 -4.682,-0.355 -7.351,-1.067c-2.67,-0.71 -5.24,-1.7 -7.713,-2.969l0,11.551c2.341,1.116 4.595,1.898 6.761,2.347c2.166,0.448 4.846,0.673 8.04,0.673c3.829,0 7.165,-0.64 10.01,-1.92c2.844,-1.279 5.022,-3.073 6.53,-5.382c1.51,-2.308 2.265,-4.95 2.265,-7.925c0,-3.238 -0.804,-5.924 -2.412,-8.058c-1.607,-2.133 -4.48,-4.13 -8.614,-5.989z" id="svg_5"/>
  </g>
  <path d="m29.331,2.256l-27.072,0c-1.249,0 -2.259,1.009 -2.259,2.255l0,22.565c0,1.244 1.01,2.255 2.259,2.255l27.072,0c1.242,0 2.255,-1.011 2.255,-2.255l0,-22.565c0,-1.246 -1.013,-2.255 -2.255,-2.255zm-18.543,1.694c0.623,0 1.126,0.502 1.126,1.128c0,0.623 -0.503,1.125 -1.126,1.125s-1.129,-0.502 -1.129,-1.125c0,-0.626 0.506,-1.128 1.129,-1.128zm-3.454,0c0.623,0 1.129,0.502 1.129,1.128c0,0.623 -0.506,1.125 -1.129,1.125c-0.625,0 -1.131,-0.503 -1.131,-1.125c0,-0.626 0.506,-1.128 1.131,-1.128zm-3.387,0c0.623,0 1.129,0.502 1.129,1.128c0,0.623 -0.506,1.125 -1.129,1.125c-0.621,0 -1.126,-0.503 -1.126,-1.125c0,-0.626 0.505,-1.128 1.126,-1.128zm25.384,23.126l-27.072,0l0,-19.154l27.072,0c0,0 0,19.154 0,19.154zm0,-21.411l-15.795,0l0,-1.128l15.795,0c0,0 0,1.128 0,1.128z" id="L1_10" transform="matrix(0.7535701413345334 -0.7535701413345334 0.7535701413345334 0.7535701413345334 108.86157645272552 174.7797764065165)"/>
  <pattern height="350" id="pattern_L1_7" patternUnits="userSpaceOnUse" width="350">
   <use id="svg_6" x="-350" xlink:href="#L1_7" y="-350"/>
   <use id="svg_7" x="0" xlink:href="#L1_7" y="-350"/>
   <use id="svg_8" x="350" xlink:href="#L1_7" y="-350"/>
   <use id="svg_9" x="-350" xlink:href="#L1_7" y="0"/>
   <use id="svg_10" x="0" xlink:href="#L1_7" y="0"/>
   <use id="svg_11" x="350" xlink:href="#L1_7" y="0"/>
   <use id="svg_12" x="-350" xlink:href="#L1_7" y="350"/>
   <use id="svg_13" x="0" xlink:href="#L1_7" y="350"/>
   <use id="svg_14" x="350" xlink:href="#L1_7" y="350"/>
  </pattern>
  <pattern height="350" id="pattern_L1_8" patternUnits="userSpaceOnUse" width="350">
   <use id="svg_15" x="-350" xlink:href="#L1_8" y="-350"/>
   <use id="svg_16" x="0" xlink:href="#L1_8" y="-350"/>
   <use id="svg_17" x="350" xlink:href="#L1_8" y="-350"/>
   <use id="svg_18" x="-350" xlink:href="#L1_8" y="0"/>
   <use id="svg_19" x="0" xlink:href="#L1_8" y="0"/>
   <use id="svg_20" x="350" xlink:href="#L1_8" y="0"/>
   <use id="svg_21" x="-350" xlink:href="#L1_8" y="350"/>
   <use id="svg_22" x="0" xlink:href="#L1_8" y="350"/>
   <use id="svg_23" x="350" xlink:href="#L1_8" y="350"/>
  </pattern>
  <pattern height="350" id="pattern_L1_10" patternUnits="userSpaceOnUse" width="350">
   <use id="svg_24" x="-350" xlink:href="#L1_10" y="-350"/>
   <use id="svg_25" x="0" xlink:href="#L1_10" y="-350"/>
   <use id="svg_26" x="350" xlink:href="#L1_10" y="-350"/>
   <use id="svg_27" x="-350" xlink:href="#L1_10" y="0"/>
   <use id="svg_28" x="0" xlink:href="#L1_10" y="0"/>
   <use id="svg_29" x="350" xlink:href="#L1_10" y="0"/>
   <use id="svg_30" x="-350" xlink:href="#L1_10" y="350"/>
   <use id="svg_31" x="0" xlink:href="#L1_10" y="350"/>
   <use id="svg_32" x="350" xlink:href="#L1_10" y="350"/>
  </pattern>
 </defs>
 <g class="layer">
  <title>Layer 1</title>
  <rect fill="#ffffff" height="100%" id="svg_33" width="100%" x="0px" y="0px"/>
  <g id="svg_34">
   <rect fill="url(#pattern_L1_7)" height="100%" id="svg_35" width="100%" x="0" y="0"/>
  </g>
  <g id="svg_36">
   <rect fill="url(#pattern_L1_8)" height="100%" id="svg_37" width="100%" x="0" y="0"/>
  </g>
  <g id="svg_38">
   <rect fill="url(#pattern_L1_10)" height="100%" id="svg_39" width="100%" x="0" y="0"/>
  </g>
 </g>
</svg>